<svg id="Ebene_1" data-name="Ebene 1" xmlns="http://www.w3.org/2000/svg" viewBox="0 0 864 144"><defs><style>.cls-1{fill:#fff;}.cls-2{fill:#00b5e2;}</style></defs><title>stuertz-logo</title><path class="cls-1" d="M542,126h9a9,9,0,0,1,9,9v36a9,9,0,0,1-9,9h-9a0,0,0,0,1,0,0V126A0,0,0,0,1,542,126Z" transform="translate(612 -506) rotate(90)"/><path class="cls-1" d="M596,144a9,9,0,0,0-9,9v45H515V144h-9a9,9,0,0,0-9,9v63H605V144Z" transform="translate(-92 -108)"/><rect class="cls-1" x="684" y="63" width="18" height="45"/><path class="cls-1" d="M776,99h9a9,9,0,0,1,9,9v90a9,9,0,0,1-9,9h-9a0,0,0,0,1,0,0V99A0,0,0,0,1,776,99Z" transform="translate(846 -740) rotate(90)"/><path class="cls-1" d="M893,99h18a0,0,0,0,1,0,0v99a9,9,0,0,1-9,9h-9a0,0,0,0,1,0,0V99A0,0,0,0,1,893,99Z" transform="translate(963 -857) rotate(90)"/><rect class="cls-1" x="332.98" y="63" width="18" height="45"/><path class="cls-1" d="M424.5,99h9a9,9,0,0,1,9,9v90a9,9,0,0,1-9,9h-9a0,0,0,0,1,0,0V99A0,0,0,0,1,424.5,99Z" transform="translate(494.5 -388.5) rotate(90)"/><path class="cls-1" d="M263,171v9a9,9,0,0,0,9,9h81v9H272a9,9,0,0,0-9,9v9H371V171Z" transform="translate(-92 -108)"/><path class="cls-1" d="M308,99h9a9,9,0,0,1,9,9v99a0,0,0,0,1,0,0H308a0,0,0,0,1,0,0V99A0,0,0,0,1,308,99Z" transform="translate(378 -272) rotate(90)"/><path class="cls-1" d="M705.54,216H731l-27-27h9a9,9,0,0,0,9-9V144H614v72h18V189h46.54ZM632,162h72v9H632Z" transform="translate(-92 -108)"/><path class="cls-1" d="M947,198H883.24l46.61-27H894.61L848,198v18H956v-9A9,9,0,0,0,947,198Z" transform="translate(-92 -108)"/><polygon class="cls-1" points="118.54 72 72 118.54 25.46 72 34.46 63 9 63 0 72 72 144 144 72 135 63 109.54 63 118.54 72"/><path class="cls-2" d="M164,133.46l23.27,23.27A18,18,0,0,0,200,162h18l-54-54-54,54h18a18,18,0,0,0,12.73-5.27Z" transform="translate(-92 -108)"/></svg>